<?xml version="1.0" standalone="no"?>
<!DOCTYPE svg PUBLIC "-//W3C//DTD SVG 20010904//EN"
 "http://www.w3.org/TR/2001/REC-SVG-20010904/DTD/svg10.dtd">
<svg version="1.0" xmlns="http://www.w3.org/2000/svg"
 width="4096.000000pt" height="4096.000000pt" viewBox="0 0 4096.000000 4096.000000"
 preserveAspectRatio="xMidYMid meet">
<metadata>
Created by potrace 1.14, written by Peter Selinger 2001-2017
</metadata>
<g transform="translate(0.000000,4096.000000) scale(0.100000,-0.100000)"
fill="#000000" stroke="none">
<path d="M19780 40043 c-360 -12 -878 -48 -1285 -88 -3187 -320 -6247 -1422
-8910 -3210 -2120 -1423 -3955 -3258 -5369 -5368 -1946 -2905 -3066 -6227
-3276 -9717 -42 -705 -42 -1651 0 -2360 208 -3482 1332 -6816 3275 -9715 1262
-1881 2861 -3549 4691 -4892 1199 -881 2507 -1629 3859 -2208 1968 -844 4018
-1348 6175 -1520 451 -36 741 -47 1353 -52 634 -5 963 2 1447 32 5263 333
10163 2783 13608 6803 2788 3254 4415 7278 4672 11557 42 703 42 1637 0 2355
-307 5208 -2691 10074 -6630 13534 -1558 1369 -3347 2496 -5242 3301 -2194
934 -4490 1448 -6898 1545 -215 9 -1239 11 -1470 3z m1030 -8103 c1479 -92
2807 -826 3676 -2031 459 -638 757 -1389 863 -2174 41 -303 43 -357 48 -1522
l5 -1143 -766 0 -766 0 0 1133 c0 677 -4 1180 -10 1252 -87 1033 -641 1960
-1515 2534 -412 271 -890 446 -1405 516 -165 23 -504 30 -685 16 -800 -64
-1534 -402 -2101 -966 -485 -483 -799 -1071 -929 -1738 -59 -302 -58 -272 -62
-1559 l-4 -1188 -755 0 -754 0 0 1119 c0 666 4 1170 10 1247 116 1467 847
2760 2046 3617 889 635 2006 955 3104 887z m6731 -8110 c383 -39 730 -207
1000 -486 230 -238 366 -501 436 -844 16 -80 17 -449 20 -6295 3 -4240 0
-6241 -7 -6308 -29 -274 -116 -515 -268 -742 -241 -360 -619 -609 -1052 -692
-91 -17 -366 -18 -7190 -18 -6800 0 -7099 1 -7190 18 -708 135 -1237 705
-1320 1422 -6 59 -10 790 -10 2097 l0 2008 3378 2 3377 3 3 613 2 612 -3380 0
-3380 0 0 830 0 830 3360 0 3360 0 0 610 0 610 -3360 0 -3360 0 0 830 0 830
3340 0 3340 0 -2 613 -3 612 -3338 3 -3338 2 4 713 c4 771 4 763 63 970 124
435 458 823 876 1016 149 69 345 124 503 140 123 13 14010 13 14136 1z"/>
</g>
</svg>
